# xmcd
#
# Track frame offsets:
# 150
# 17543
# 37404
# 54815
# 76822
# 100907
# 114099
# 137680
# 157425
# 172198
# 192445
# 214962
#
# Disc length: 3148 seconds
#
#
# Revision: 6
# Processed by: cddbd v1.5.1PL2 Copyright (c) Steve Scherf et al.
# Submitted via: FreeRIP 2.30 
#
DISCID=a50c4a0c
DTITLE=Norah Jones - House of Blues
DYEAR=1900
DGENRE=Blues
TTITLE0=Fortress Europe
TTITLE1=Rise To The Challenge
TTITLE2=La Haine
TTITLE3=1000 Mirrors Featuring Sinead O'Connor
TTITLE4=19 Rebellions
TTITLE5=Blowback
TTITLE6=2 Face
TTITLE7=Power To The Small Massive
TTITLE8=Dhol Rinse
TTITLE9=Basta
TTITLE10=Cyberabad
TTITLE11=Enemy Of The Enemy
EXTD=
EXTT0=
EXTT1=
EXTT2=
EXTT3=
EXTT4=
EXTT5=
EXTT6=
EXTT7=
EXTT8=
EXTT9=
EXTT10=
EXTT11=
PLAYORDER=
